REM MD5 834679e97db992f4fac077dddcdbf288
FILE "Official U.S. PlayStation Magazine Demo Disc 26 (USA).bin" BINARY
  TRACK 01 MODE2/2352
    INDEX 01 00:00:00
  TRACK 02 AUDIO
    INDEX 00 60:24:12
    INDEX 01 60:26:12
  TRACK 03 AUDIO
    INDEX 00 62:48:33
    INDEX 01 62:50:33
  TRACK 04 AUDIO
    INDEX 00 67:36:30
    INDEX 01 67:38:30
REM LEADOUT 67:44:26
